<svg id="After_Effects" data-name="After Effects" xmlns="http://www.w3.org/2000/svg" viewBox="0 0 80 78"><path d="M28.47,35.77c-.34-1-.64-2-1-3.07s-.63-2-.9-3-.5-1.8-.73-2.6H25.8a41.92,41.92,0,0,1-1.13,4.3c-.5,1.6-1,3.27-1.54,4.94s-1,3.26-1.46,4.66h8.46c-.2-.7-.46-1.53-.76-2.4S28.77,36.77,28.47,35.77Z" transform="translate(0 -1)" style="fill:#fff"/><path d="M57.07,34.8a4.71,4.71,0,0,0-4.44,2.53,7,7,0,0,0-.73,2.4h7c.87,0,1.5,0,1.9,0a1.55,1.55,0,0,0,.77-.27V39.1a3.91,3.91,0,0,0-.2-1.23A4.41,4.41,0,0,0,57.07,34.8Z" transform="translate(0 -1)" style="fill:#fff"/><path d="M65.83,1H14.17A14.15,14.15,0,0,0,0,15.17V64.83A14.15,14.15,0,0,0,14.17,79H65.83A14.15,14.15,0,0,0,80,64.83V15.17A14.15,14.15,0,0,0,65.83,1ZM42.37,56h-7a.49.49,0,0,1-.53-.36l-2.74-8H19.73L17.2,55.53a.59.59,0,0,1-.63.47H10.3c-.37,0-.47-.2-.37-.6L20.67,24.63c.1-.33.2-.63.33-1a11.91,11.91,0,0,0,.2-2.17.33.33,0,0,1,.27-.36H30.1c.23,0,.4.1.43.26L42.7,55.5C42.8,55.87,42.7,56,42.37,56Zm26.16-13.3c-.06.64-.1,1.1-.13,1.4a.49.49,0,0,1-.47.44c-.2,0-.56,0-1.1.06a15,15,0,0,1-1.93.1c-.77,0-1.57-.13-2.43-.13H51.9a7.42,7.42,0,0,0,1,3,5.3,5.3,0,0,0,2.44,2,10.51,10.51,0,0,0,4.26.83A19.09,19.09,0,0,0,63.1,50a12.83,12.83,0,0,0,3-.76c.16-.14.26-.07.26.26v5.1a1.76,1.76,0,0,1-.06.4.91.91,0,0,1-.24.24,14.41,14.41,0,0,1-3.33,1,22.73,22.73,0,0,1-4.73.4,15.7,15.7,0,0,1-6.4-1.17,11.12,11.12,0,0,1-4.2-3.17A12,12,0,0,1,45.07,48,17.31,17.31,0,0,1,45.2,37.8a13.62,13.62,0,0,1,2.5-4.57,12.07,12.07,0,0,1,4-3.16,12.57,12.57,0,0,1,5.57-1,12,12,0,0,1,5.17,1A9.33,9.33,0,0,1,66,32.73a12.57,12.57,0,0,1,2,3.8,13.24,13.24,0,0,1,.63,4.07C68.6,41.4,68.57,42.1,68.53,42.73Z" transform="translate(0 -1)" style="fill:#fff"/><path d="M42.7,55.5,40,47.92V56h2.37C42.7,56,42.8,55.87,42.7,55.5Z" transform="translate(0 -1)" style="fill:none"/><path d="M66,32.73a9.33,9.33,0,0,0-3.5-2.66,12,12,0,0,0-5.17-1,12.57,12.57,0,0,0-5.57,1,12.07,12.07,0,0,0-4,3.16,13.62,13.62,0,0,0-2.5,4.57A17.31,17.31,0,0,0,45.07,48a12,12,0,0,0,2.3,4.36,11.12,11.12,0,0,0,4.2,3.17A15.7,15.7,0,0,0,58,56.67a22.73,22.73,0,0,0,4.73-.4,14.41,14.41,0,0,0,3.33-1,.91.91,0,0,0,.24-.24,1.76,1.76,0,0,0,.06-.4v-5.1c0-.33-.1-.4-.26-.26a12.83,12.83,0,0,1-3,.76,19.09,19.09,0,0,1-3.47.37,10.51,10.51,0,0,1-4.26-.83,5.3,5.3,0,0,1-2.44-2,7.42,7.42,0,0,1-1-3H62.47c.86,0,1.66.13,2.43.13a15,15,0,0,0,1.93-.1c.54,0,.9-.06,1.1-.06a.49.49,0,0,0,.47-.44c0-.3.07-.76.13-1.4s.07-1.33.07-2.13A13.24,13.24,0,0,0,68,36.53,12.57,12.57,0,0,0,66,32.73Zm-4.37,6.7a1.55,1.55,0,0,1-.77.27c-.4,0-1,0-1.9,0h-7a7,7,0,0,1,.73-2.4,4.71,4.71,0,0,1,4.44-2.53,4.41,4.41,0,0,1,4.33,3.07,3.91,3.91,0,0,1,.2,1.23Z" transform="translate(0 -1)" style="fill:none"/><path d="M57.07,34.8a4.71,4.71,0,0,0-4.44,2.53,7,7,0,0,0-.73,2.4h7c.87,0,1.5,0,1.9,0a1.55,1.55,0,0,0,.77-.27V39.1a3.91,3.91,0,0,0-.2-1.23A4.41,4.41,0,0,0,57.07,34.8Z" transform="translate(0 -1)" style="fill:#fff"/></svg>