<?xml version="1.0" encoding="UTF-8"?><svg xmlns="http://www.w3.org/2000/svg" viewBox="0 0 80 47.84"><g id="a"/><g id="b"><g id="c"><g><path d="M22.55,17.37c0,.98,.11,1.78,.29,2.37,.21,.59,.48,1.22,.85,1.92,.13,.21,.19,.43,.19,.61,0,.27-.16,.53-.51,.8l-1.68,1.12c-.24,.16-.48,.24-.69,.24-.27,0-.53-.13-.8-.37-.37-.4-.69-.82-.96-1.25-.27-.45-.53-.96-.82-1.57-2.08,2.45-4.68,3.67-7.82,3.67-2.24,0-4.02-.64-5.32-1.92-1.3-1.28-1.97-2.98-1.97-5.11,0-2.26,.8-4.1,2.42-5.48s3.78-2.08,6.52-2.08c.9,0,1.84,.08,2.82,.21s2,.35,3.06,.59v-1.94c0-2.02-.43-3.43-1.25-4.26-.85-.82-2.29-1.22-4.34-1.22-.93,0-1.89,.11-2.87,.35s-1.94,.53-2.87,.9c-.43,.19-.75,.29-.93,.35s-.32,.08-.43,.08c-.37,0-.56-.27-.56-.82v-1.3c0-.43,.05-.75,.19-.93s.37-.37,.75-.56c.93-.48,2.05-.88,3.35-1.2C10.47,.21,11.85,.05,13.31,.05c3.17,0,5.48,.72,6.97,2.16,1.46,1.44,2.21,3.62,2.21,6.55v8.62h.05Zm-10.8,4.04c.88,0,1.78-.16,2.74-.48s1.81-.9,2.53-1.7c.43-.51,.75-1.06,.9-1.7,.16-.64,.27-1.41,.27-2.31v-1.12c-.77-.19-1.6-.35-2.45-.45s-1.68-.16-2.5-.16c-1.78,0-3.09,.35-3.96,1.06s-1.3,1.73-1.3,3.06c0,1.25,.32,2.18,.98,2.82,.64,.67,1.57,.98,2.79,.98Zm21.37,2.87c-.48,0-.8-.08-1.01-.27-.21-.16-.4-.53-.56-1.04L25.29,2.42c-.16-.53-.24-.88-.24-1.06,0-.43,.21-.67,.64-.67h2.61c.51,0,.85,.08,1.04,.27,.21,.16,.37,.53,.53,1.04l4.47,17.61L38.48,2c.13-.53,.29-.88,.51-1.04s.59-.27,1.06-.27h2.13c.51,0,.85,.08,1.06,.27,.21,.16,.4,.53,.51,1.04l4.2,17.83L52.56,2c.16-.53,.35-.88,.53-1.04,.21-.16,.56-.27,1.04-.27h2.47c.43,0,.67,.21,.67,.67,0,.13-.03,.27-.05,.43s-.08,.37-.19,.67l-6.41,20.57c-.16,.53-.35,.88-.56,1.04s-.56,.27-1.01,.27h-2.29c-.51,0-.85-.08-1.06-.27s-.4-.53-.51-1.06l-4.12-17.16-4.1,17.14c-.13,.53-.29,.88-.51,1.06s-.59,.27-1.06,.27h-2.29Zm34.19,.72c-1.38,0-2.77-.16-4.1-.48s-2.37-.67-3.06-1.06c-.43-.24-.72-.51-.82-.75s-.16-.51-.16-.75v-1.36c0-.56,.21-.82,.61-.82,.16,0,.32,.03,.48,.08,.16,.05,.4,.16,.67,.27,.9,.4,1.89,.72,2.93,.93,1.06,.21,2.1,.32,3.17,.32,1.68,0,2.98-.29,3.88-.88,.9-.59,1.38-1.44,1.38-2.53,0-.75-.24-1.36-.72-1.86-.48-.51-1.38-.96-2.69-1.38l-3.86-1.2c-1.94-.61-3.38-1.52-4.26-2.71-.88-1.17-1.33-2.47-1.33-3.86,0-1.12,.24-2.1,.72-2.95s1.12-1.6,1.92-2.18c.8-.61,1.7-1.06,2.77-1.38s2.18-.45,3.35-.45c.59,0,1.2,.03,1.78,.11,.61,.08,1.17,.19,1.73,.29,.53,.13,1.04,.27,1.52,.43s.85,.32,1.12,.48c.37,.21,.64,.43,.8,.67,.16,.21,.24,.51,.24,.88v1.25c0,.56-.21,.85-.61,.85-.21,0-.56-.11-1.01-.32-1.52-.69-3.22-1.04-5.11-1.04-1.52,0-2.71,.24-3.54,.75s-1.25,1.28-1.25,2.37c0,.75,.27,1.38,.8,1.89s1.52,1.01,2.93,1.46l3.78,1.2c1.92,.61,3.3,1.46,4.12,2.55s1.22,2.34,1.22,3.73c0,1.14-.24,2.18-.69,3.09-.48,.9-1.12,1.7-1.94,2.34-.82,.67-1.81,1.14-2.95,1.49-1.2,.37-2.45,.56-3.8,.56Z" style="fill:#fff;"/><path d="M72.33,37.94c-8.75,6.47-21.47,9.9-32.41,9.9-15.33,0-29.13-5.67-39.56-15.09-.82-.75-.08-1.76,.9-1.17,11.28,6.55,25.2,10.51,39.59,10.51,9.71,0,20.38-2.02,30.2-6.17,1.46-.67,2.71,.96,1.28,2.02Zm3.65-4.15c-1.12-1.44-7.4-.69-10.24-.35-.85,.11-.98-.64-.21-1.2,5-3.51,13.22-2.5,14.18-1.33,.96,1.2-.27,9.42-4.95,13.36-.72,.61-1.41,.29-1.09-.51,1.06-2.63,3.43-8.57,2.31-9.98Z" style="fill:#fff;"/></g></g></g></svg>