<?xml version="1.0" encoding="UTF-8"?><svg id="a" xmlns="http://www.w3.org/2000/svg" viewBox="0 0 80 80"><path d="M40,0C17.91,0,0,17.91,0,40s17.91,40,40,40,40-17.91,40-40S62.09,0,40,0ZM8.59,40.42l30.99,30.99c-17.02-.22-30.77-13.97-30.99-30.99Zm38.44,30.2L9.38,32.97c3.19-13.96,15.69-24.38,30.62-24.38,10.44,0,19.68,5.09,25.39,12.92l-4.35,3.84c-4.63-6.64-12.33-10.99-21.05-10.99-11.1,0-20.54,7.05-24.12,16.91l32.85,32.85c7.98-2.89,14.11-9.62,16.17-17.96h-13.61v-6.15h20.13c0,14.93-10.42,27.43-24.38,30.62Z" style="fill:#fff;"/></svg>