<?xml version="1.0" encoding="UTF-8"?><svg xmlns="http://www.w3.org/2000/svg" viewBox="0 0 80 78.03"><g id="a"/><g id="b"><g id="c"><path d="M40,0C17.91,0,0,17.91,0,40c0,17.67,11.46,32.67,27.35,37.96,2,.37,2.73-.87,2.73-1.92,0-.95-.04-4.1-.05-7.45-11.13,2.42-13.48-4.72-13.48-4.72-1.82-4.62-4.44-5.85-4.44-5.85-3.63-2.48,.27-2.43,.27-2.43,4.02,.28,6.13,4.12,6.13,4.12,3.57,6.12,9.36,4.35,11.64,3.33,.36-2.59,1.4-4.35,2.54-5.35-8.88-1.01-18.22-4.44-18.22-19.77,0-4.37,1.56-7.94,4.12-10.74-.42-1.01-1.78-5.08,.39-10.59,0,0,3.36-1.08,11,4.1,3.19-.89,6.61-1.33,10.01-1.35,3.4,.02,6.82,.46,10.02,1.35,7.63-5.18,10.99-4.1,10.99-4.1,2.18,5.51,.81,9.58,.39,10.59,2.56,2.8,4.12,6.37,4.12,10.74,0,15.36-9.36,18.75-18.26,19.74,1.43,1.24,2.71,3.68,2.71,7.41,0,5.35-.05,9.66-.05,10.98,0,1.06,.72,2.31,2.75,1.92,15.88-5.3,27.33-20.28,27.33-37.95C80,17.91,62.09,0,40,0ZM14.98,56.98c-.09,.2-.4,.26-.69,.12-.29-.13-.45-.4-.36-.6,.09-.2,.4-.26,.69-.12,.29,.13,.46,.4,.36,.6Zm1.97,1.76c-.19,.18-.56,.09-.82-.18-.26-.28-.31-.65-.12-.83,.2-.18,.56-.09,.82,.18,.26,.28,.31,.65,.11,.83Zm1.35,2.25c-.25,.17-.65,.01-.89-.35-.25-.36-.25-.78,0-.95,.25-.17,.64-.02,.89,.34,.24,.36,.24,.79,0,.96Zm2.28,2.6c-.22,.24-.69,.18-1.03-.15-.35-.32-.45-.78-.23-1.02,.22-.24,.69-.17,1.04,.15,.35,.32,.45,.78,.22,1.02Zm2.95,.88c-.1,.31-.55,.46-1,.32-.45-.14-.75-.5-.66-.82,.09-.32,.55-.46,1-.32,.45,.14,.75,.5,.65,.82Zm3.36,.37c.01,.33-.37,.6-.85,.61-.48,.01-.87-.26-.87-.58,0-.33,.38-.6,.85-.61,.48,0,.87,.26,.87,.58Zm3.3-.13c.06,.32-.27,.65-.75,.74-.46,.08-.89-.11-.95-.43-.06-.33,.28-.66,.74-.75,.47-.08,.9,.11,.96,.44Z" style="fill:#fff;"/></g></g></svg>