<svg id="Illustrator" xmlns="http://www.w3.org/2000/svg" viewBox="0 0 80 78"><path d="M35.1,35.77c-.33-1-.63-2-1-3.07s-.63-2-.9-3-.5-1.8-.73-2.6h-.07a39.49,39.49,0,0,1-1.13,4.3c-.5,1.6-1,3.27-1.53,4.94s-1,3.26-1.47,4.66h8.47c-.2-.7-.47-1.53-.77-2.4S35.4,36.77,35.1,35.77Z" transform="translate(0 -1)" style="fill:#fff"/><path d="M65.83,1H14.17A14.15,14.15,0,0,0,0,15.17V64.83A14.15,14.15,0,0,0,14.17,79H65.83A14.15,14.15,0,0,0,80,64.83V15.17A14.15,14.15,0,0,0,65.83,1ZM49,56.1H42a.5.5,0,0,1-.53-.37L38.77,47.8H26.37l-2.54,7.83a.58.58,0,0,1-.63.47H16.93c-.36,0-.46-.2-.36-.6L27.3,24.6c.1-.33.2-.7.33-1.1a11.09,11.09,0,0,0,.2-2.17A.33.33,0,0,1,28.1,21h8.63c.27,0,.4.1.44.26L49.33,55.57C49.43,55.93,49.33,56.1,49,56.1Zm11.33-.5c0,.37-.13.53-.43.53H53.37a.46.46,0,0,1-.5-.53V29.93c0-.33.13-.46.43-.46h6.6c.3,0,.43.16.43.46Zm-.7-30.1a3.93,3.93,0,0,1-3,1.17,4.14,4.14,0,0,1-3-1.17,4.36,4.36,0,0,1-1.13-3.07,3.91,3.91,0,0,1,1.2-3,4.27,4.27,0,0,1,3-1.17,4,4,0,0,1,3,1.17,4.22,4.22,0,0,1,1.1,3A4.23,4.23,0,0,1,59.63,25.5Z" transform="translate(0 -1)" style="fill:#fff"/><path d="M56.67,18.3a4.27,4.27,0,0,0-3,1.17,3.91,3.91,0,0,0-1.2,3,4.36,4.36,0,0,0,1.13,3.07,4.14,4.14,0,0,0,3,1.17,3.93,3.93,0,0,0,3-1.17,4.23,4.23,0,0,0,1.17-3.07,4.22,4.22,0,0,0-1.1-3A4,4,0,0,0,56.67,18.3Z" transform="translate(0 -1)" style="fill:none"/><path d="M42,56.1h7c.33,0,.43-.17.33-.53L40,29.23V51.38l1.5,4.35A.5.5,0,0,0,42,56.1Z" transform="translate(0 -1)" style="fill:none"/><path d="M59.9,29.47H53.3c-.3,0-.43.13-.43.46V55.6a.46.46,0,0,0,.5.53H59.9c.3,0,.43-.16.43-.53V29.93C60.33,29.63,60.2,29.47,59.9,29.47Z" transform="translate(0 -1)" style="fill:none"/></svg>