<svg id="InDesign" xmlns="http://www.w3.org/2000/svg" viewBox="0 0 80 78"><path d="M65.83,1H14.17A14.15,14.15,0,0,0,0,15.17V64.83A14.15,14.15,0,0,0,14.17,79H65.83A14.15,14.15,0,0,0,80,64.83V15.17A14.15,14.15,0,0,0,65.83,1ZM29.07,55.6c0,.37-.17.53-.47.53H22.07c-.3,0-.44-.16-.44-.53V21.4c0-.3.17-.43.47-.43h6.5a.37.37,0,0,1,.43.33.11.11,0,0,1,0,.1Zm29.76-1a25.32,25.32,0,0,1-5.43,1.6,29.13,29.13,0,0,1-5.13.47,16.66,16.66,0,0,1-7.17-1.5,11.63,11.63,0,0,1-5-4.54A14.34,14.34,0,0,1,34.23,43a13.71,13.71,0,0,1,7.14-12.2A17,17,0,0,1,49.8,28.9a6.58,6.58,0,0,1,.7,0c.3,0,.63,0,1,.07V18.47c0-.24.1-.37.34-.37h6.76a.31.31,0,0,1,.34.23v31.8c0,.6,0,1.27.06,2s.1,1.37.14,1.94A.54.54,0,0,1,58.83,54.6Z" transform="translate(0 -1)" style="fill:#fff"/><path d="M49.53,35.1a8.17,8.17,0,0,0-3.76.87,6.85,6.85,0,0,0-3.94,6.7,9.37,9.37,0,0,0,.57,3.43,6.47,6.47,0,0,0,1.5,2.37,5.76,5.76,0,0,0,2.27,1.33,8.7,8.7,0,0,0,2.76.43c.5,0,1,0,1.4-.06a2.91,2.91,0,0,0,1.2-.17V35.33c-.3-.06-.6-.13-.9-.16A10,10,0,0,0,49.53,35.1Z" transform="translate(0 -1)" style="fill:#fff"/><path d="M48.27,56.67a29.13,29.13,0,0,0,5.13-.47,25.32,25.32,0,0,0,5.43-1.6.54.54,0,0,0,.34-.53c0-.57-.07-1.24-.14-1.94s-.06-1.4-.06-2V18.33a.31.31,0,0,0-.34-.23H51.87c-.24,0-.34.13-.34.37V29c-.4,0-.73,0-1-.07a6.58,6.58,0,0,0-.7,0,17,17,0,0,0-8.43,1.93,12.27,12.27,0,0,0-1.37.88V54.57a11.72,11.72,0,0,0,1.1.6A16.66,16.66,0,0,0,48.27,56.67ZM42.93,38.43A7.47,7.47,0,0,1,45.77,36a8.17,8.17,0,0,1,3.76-.87,10,10,0,0,1,1.1.07c.3,0,.6.1.9.16V50a2.91,2.91,0,0,1-1.2.17c-.43,0-.9.06-1.4.06a8.7,8.7,0,0,1-2.76-.43,5.76,5.76,0,0,1-2.27-1.33,6.47,6.47,0,0,1-1.5-2.37,9.37,9.37,0,0,1-.57-3.43A7.43,7.43,0,0,1,42.93,38.43Z" transform="translate(0 -1)" style="fill:none"/><path d="M43.9,48.47a5.76,5.76,0,0,0,2.27,1.33,8.7,8.7,0,0,0,2.76.43c.5,0,1,0,1.4-.06a2.91,2.91,0,0,0,1.2-.17V35.33c-.3-.06-.6-.13-.9-.16a10,10,0,0,0-1.1-.07,8.17,8.17,0,0,0-3.76.87,6.85,6.85,0,0,0-3.94,6.7,9.37,9.37,0,0,0,.57,3.43A6.47,6.47,0,0,0,43.9,48.47Z" transform="translate(0 -1)" style="fill:#fff"/></svg>