<?xml version="1.0" encoding="UTF-8"?><svg xmlns="http://www.w3.org/2000/svg" viewBox="0 0 70.08 80"><g id="a"/><g id="b"><g id="c"><g><path d="M41.99,39.32c0-3.41-2.78-6.19-6.19-6.19s-6.19,2.78-6.19,6.19,2.78,6.19,6.19,6.19,6.19-2.78,6.19-6.19Z" style="fill:#fff;"/><path d="M39.11,29.69l9.88-19.98,9.85,20.1c.41-.16,.83-.29,1.26-.39L70.08,0H27.85l9.94,29.33c.45,.09,.89,.21,1.32,.36Z" style="fill:#fff;"/><path d="M9.02,33.19c-3.41,0-6.19,2.78-6.19,6.19s2.78,6.19,6.19,6.19,6.19-2.78,6.19-6.19-2.78-6.19-6.19-6.19Z" style="fill:#fff;"/><path d="M5.32,77.34c8.1,5.61,16.68,1.35,26.62-3.59,4.97-2.47,10.11-5.02,15.41-6.33,2.01-.49,4.06-.79,6.04-1.08,3.71-.53,7.21-1.04,10.13-2.73,3.13-1.82,5.28-4.85,5.88-8.32,.46-2.63,.03-5.27-1.12-7.61-1.65,1.15-3.65,1.83-5.81,1.83-5.57,0-10.11-4.49-10.19-10.04l-6.3-.09c-.03,5.59-4.59,10.13-10.19,10.13-.52,0-1.03-.04-1.53-.11-1.66,2.62-3.68,5.07-6.03,7.29-3.63,3.43-7.73,5.97-12.18,7.55l-.82,.29-.77-.4c-5.62-2.89-8.3-9-6.6-14.63-.92-.1-1.8-.33-2.63-.66-.28,.58-.56,1.16-.85,1.76-1.67,3.44-3.41,6.99-4.05,10.86-.69,4.17-.96,11.77,4.97,15.88Z" style="fill:#fff;"/><path d="M62.48,45.51c3.41,0,6.19-2.78,6.19-6.19s-2.78-6.19-6.19-6.19-6.19,2.78-6.19,6.19,2.78,6.19,6.19,6.19Z" style="fill:#fff;"/></g></g></g></svg>