<svg id="Laptop" xmlns="http://www.w3.org/2000/svg" viewBox="0 0 80 43.29"><path d="M40,57.6H0v2a2,2,0,0,0,2,2H78a2,2,0,0,0,2-2v-2Z" transform="translate(0 -18.35)" style="fill:#999"/><path d="M40,57.6H0v2a2.06,2.06,0,0,0,.34,1.13H79.66A2.06,2.06,0,0,0,80,59.62v-2Z" transform="translate(0 -18.35)" style="fill:#b3b3b3"/><path d="M70.2,18.35H9.8a2,2,0,0,0-2,2V57.6H72.23V20.38A2,2,0,0,0,70.2,18.35Z" transform="translate(0 -18.35)" style="fill:#333"/><path d="M46.63,57.6H33.37s-.06.88.71.88H45.92C46.69,58.48,46.63,57.6,46.63,57.6Z" transform="translate(0 -18.35)" style="fill:#666"/></svg>