<?xml version="1.0" encoding="UTF-8"?><svg xmlns="http://www.w3.org/2000/svg" viewBox="0 0 80 76.36"><g id="a"/><g id="b"><g id="c"><g><path d="M78.21,9.22L55.59,.21c-2.25-.9-4.53,1.26-3.74,3.56l2.58,7.6c-4.8,3.19-19.88,14.19-25.39,29.95,0,0,14.1-14.41,30.3-15.52l2.68,7.9c.78,2.3,3.9,2.62,5.14,.54l12.45-20.92c.89-1.5,.23-3.45-1.39-4.1Z" style="fill:#fff;"/><path d="M65.77,41.31h-3.99c-3.53,.48-3.66,4.36-3.66,4.36v18.71H11.97V18.24H30.68s4.33,.04,4.36-4.32v-3.99c-.48-3.53-4.36-3.66-4.36-3.66H5.99C2.68,6.27,0,8.95,0,12.25v58.12c0,3.31,2.68,5.99,5.99,5.99h58.12c3.31,0,5.99-2.68,5.99-5.99v-24.7s.04-4.33-4.32-4.36Z" style="fill:#fff;"/></g></g></g></svg>