<svg id="Lightroom" xmlns="http://www.w3.org/2000/svg" viewBox="0 0 80 78"><path d="M65.83,1H14.17A14.15,14.15,0,0,0,0,15.17V64.83A14.15,14.15,0,0,0,14.17,79H65.83A14.15,14.15,0,0,0,80,64.83V15.17A14.15,14.15,0,0,0,65.83,1ZM43.5,49.83l-1,5.8a.57.57,0,0,1-.2.4.54.54,0,0,1-.33.1H20.87c-.37,0-.54-.2-.54-.6V21.47A.42.42,0,0,1,20.7,21h6.67a.31.31,0,0,1,.36.27v28.1h15.4C43.47,49.37,43.57,49.53,43.5,49.83Zm19.87-13.9c0,.27-.17.37-.54.37a13.74,13.74,0,0,0-6.3,1.13,5.58,5.58,0,0,0-1.8,1.24v17c0,.33-.13.46-.43.46H47.8a.45.45,0,0,1-.53-.4V37.13c0-.8,0-1.63,0-2.5s0-1.73-.06-2.6-.1-1.46-.2-2.2a.29.29,0,0,1,.23-.36s.07,0,.13,0h5.84a.75.75,0,0,1,.7.53,2.07,2.07,0,0,1,.26.77,9.21,9.21,0,0,1,.17,1c0,.37.07.77.07,1.2a12.54,12.54,0,0,1,3.56-2.87,10.06,10.06,0,0,1,5-1.2.43.43,0,0,1,.47.37Z" transform="translate(0 -1)" style="fill:#fff"/></svg>