<svg id="Mongo" xmlns="http://www.w3.org/2000/svg" viewBox="0 0 35.82 80"><path d="M41.82,80l-2.13-.73S40,68.42,36.06,67.64c-2.6-3,.41-127.8,9.76-.42,0,0-3.22,1.61-3.79,4.36S41.82,80,41.82,80Z" transform="translate(-22.09)" style="fill:#fff;fill-rule:evenodd"/><path d="M41.82,80l-2.13-.73S40,68.42,36.06,67.64c-2.6-3,.41-127.8,9.76-.42,0,0-3.22,1.61-3.79,4.36S41.82,80,41.82,80Z" transform="translate(-22.09)" style="fill:#fff;fill-rule:evenodd"/><path d="M43,69.51S61.61,57.25,57.25,31.74C53,13.19,43.12,7.12,42,4.78A25.81,25.81,0,0,1,39.69.21l.78,51.58c0,.05-1.61,15.79,2.49,17.72" transform="translate(-22.09)" style="fill:#fff;fill-rule:evenodd"/><path d="M43,69.51S61.61,57.25,57.25,31.74C53,13.19,43.12,7.12,42,4.78A25.81,25.81,0,0,1,39.69.21l.78,51.58c0,.05-1.61,15.79,2.49,17.72" transform="translate(-22.09)" style="fill:#fff;fill-rule:evenodd"/><path d="M38.6,70.18s-17.51-12-16.47-33S35.48,5.82,37.87,4A4.86,4.86,0,0,0,39.59,0c1.09,2.34.88,35,1,38.81.46,14.8-.83,28.57-2,31.37Z" transform="translate(-22.09)" style="fill:#fff;fill-rule:evenodd"/><path d="M38.6,70.18s-17.51-12-16.47-33S35.48,5.82,37.87,4A4.86,4.86,0,0,0,39.59,0c1.09,2.34.88,35,1,38.81.46,14.8-.83,28.57-2,31.37Z" transform="translate(-22.09)" style="fill:#fff;fill-rule:evenodd"/></svg>