<?xml version="1.0" encoding="UTF-8"?><svg xmlns="http://www.w3.org/2000/svg" viewBox="0 0 69.72 80"><g id="a"/><g id="b"><g id="c"><g id="d"><path d="M68.83,19.34L35.75,.24c-.59-.37-1.26-.3-1.85,.07L.97,19.34c-.62,.3-1,.94-.96,1.63v19.09H0v19.09c0,.74,.29,1.19,.89,1.56l33.01,19.02c.62,.37,1.38,.37,2,0l4.52-2.59,28.42-16.43c.58-.33,.92-.96,.89-1.63V20.96c.03-.67-.31-1.29-.89-1.63Zm-13.99,36.02c0,1.75-.82,3.04-2.3,3.85-1.11,.59-2.3,.74-3.55,.67-1.82-.12-3.54-.85-4.89-2.07-.74-.67-1.26-1.48-1.93-2.22l-18.75-22.43c0-.08-.08-.15-.15-.25l.03,.05v22.25c0,2.52-2,4.74-4.66,4.66-1.63-.08-2.89-.74-3.75-2.15-.45-.67-.59-1.41-.59-2.22V24.59c0-2.08,1.26-3.55,2.89-4.22,1.63-.67,3.26-.52,4.89,0,1.56,.45,2.74,1.41,3.75,2.59l19.69,23.61c.08,.08,.15,.25,.3,.37V24.44c0-2.37,1.63-4.22,3.93-4.44,2.89-.37,4.81,1.7,5.11,3.85v31.5Z" style="fill:#fff;"/></g></g></g></svg>