<svg id="Node" xmlns="http://www.w3.org/2000/svg" viewBox="0 0 71 80"><path d="M40,80a6.42,6.42,0,0,1-3.09-.81l-9.77-5.8c-1.47-.81-.74-1.11-.3-1.25a17.78,17.78,0,0,0,4.41-2,.67.67,0,0,1,.74.08l7.5,4.48a.91.91,0,0,0,.88,0l29.32-17a.84.84,0,0,0,.44-.81V23a.84.84,0,0,0-.44-.81L40.37,5.33a.91.91,0,0,0-.88,0L10.16,22.23a.94.94,0,0,0-.44.81V56.92a.93.93,0,0,0,.44.81l8,4.63c4.34,2.21,7.06-.37,7.06-2.94V26a.89.89,0,0,1,.88-.88h3.75a.89.89,0,0,1,.88.88V59.42c0,5.81-3.16,9.19-8.67,9.19-1.69,0-3,0-6.76-1.84L7.59,62.36A6.2,6.2,0,0,1,4.5,57V23.11a6.2,6.2,0,0,1,3.09-5.36L36.91.77a6.57,6.57,0,0,1,6.18,0l29.32,17a6.2,6.2,0,0,1,3.09,5.36V57a6.2,6.2,0,0,1-3.09,5.36l-29.32,17A7.56,7.56,0,0,1,40,80Zm9-23.3c-12.86,0-15.51-5.88-15.51-10.88a.89.89,0,0,1,.88-.88h3.83a.75.75,0,0,1,.8.74c.59,3.89,2.28,5.8,10.07,5.8,6.18,0,8.82-1.39,8.82-4.7,0-1.91-.73-3.31-10.36-4.26-8-.81-13-2.58-13-9,0-5.95,5-9.48,13.38-9.48,9.4,0,14,3.23,14.62,10.29a1.16,1.16,0,0,1-.22.66.86.86,0,0,1-.59.29H57.93a.87.87,0,0,1-.81-.66c-.88-4-3.16-5.36-9.18-5.36-6.76,0-7.57,2.35-7.57,4.11,0,2.14,1,2.8,10.07,4s13.3,2.87,13.3,9.19S58.37,56.7,49,56.7Z" transform="translate(-4.5)" style="fill:#fff"/></svg>