<?xml version="1.0" encoding="UTF-8"?><svg id="a" xmlns="http://www.w3.org/2000/svg" viewBox="0 0 1920 1420"><defs><style>.b{stroke:#ccc;}.b,.c,.d{fill:none;stroke-miterlimit:10;}.b,.d{stroke-width:4px;}.e{fill:#4d4d4d;}.f{fill:#333;}.c{stroke-width:3px;}.c,.d{stroke:#fff;}.g{fill:gray;}.h{fill:#253143;}.i{fill:#39414c;}.j{fill:#999;}.k{fill:#3d83a1;}.l{fill:#1a1a1a;}.m{fill:#e7894d;}</style></defs><rect class="h" x="255.07" y="96.42" width="858.6" height="1323.58"/><rect class="i" width="1113.67" height="48.21"/><polygon class="f" points="0 48.21 0 96.42 0 1420 255.07 1420 255.07 96.42 1113.67 96.42 1113.67 48.21 0 48.21"/><rect class="g" x="255.07" y="61.67" width="153.49" height="34.75"/><g><polyline class="c" points="400.58 73.69 395.22 79.04 400.77 84.59"/><polyline class="c" points="389.87 73.69 395.22 79.04 389.68 84.59"/></g><rect class="e" x="419.07" y="61.67" width="153.49" height="34.75"/><g><polyline class="c" points="564.58 73.69 559.22 79.04 564.77 84.59"/><polyline class="c" points="553.87 73.69 559.22 79.04 553.68 84.59"/></g><rect class="e" x="583.07" y="61.67" width="153.49" height="34.75"/><g><polyline class="c" points="728.58 73.69 723.22 79.04 728.77 84.59"/><polyline class="c" points="717.87 73.69 723.22 79.04 717.68 84.59"/></g><g><polyline class="d" points="1095.27 14.36 1085.7 23.93 1095.61 33.85"/><polyline class="d" points="1076.13 14.36 1085.7 23.93 1075.79 33.85"/></g><rect class="d" x="1027.44" y="14.78" width="22.02" height="18.65"/><line class="d" x1="1001" y1="24.1" x2="973.33" y2="24.1"/><rect class="e" x="1113.67" width="806.33" height="48.21"/><g><polyline class="d" points="1901.61 14.36 1892.03 23.93 1901.95 33.85"/><polyline class="d" points="1882.46 14.36 1892.03 23.93 1882.12 33.85"/></g><rect class="d" x="1833.77" y="14.78" width="22.02" height="18.65"/><line class="d" x1="1807.33" y1="24.1" x2="1779.67" y2="24.1"/><rect class="e" x="1113.67" y="1037.85" width="806.33" height="48.21"/><g><polyline class="d" points="1901.61 1052.21 1892.03 1061.78 1901.95 1071.69"/><polyline class="d" points="1882.46 1052.21 1892.03 1061.78 1882.12 1071.69"/></g><rect class="d" x="1833.77" y="1052.63" width="22.02" height="18.65"/><line class="d" x1="1807.33" y1="1061.95" x2="1779.67" y2="1061.95"/><rect class="e" y="96.42" width="255.07" height="28.25"/><polygon class="m" points="34.44 113 34.44 101.67 16.56 101.67 16.56 119.56 34.44 119.56 34.44 117.17 26.5 117.17 26.5 113 34.44 113"/><line class="b" x1="43.67" y1="110.61" x2="130" y2="110.61"/><polygon class="m" points="34.44 140.67 34.44 129.33 16.56 129.33 16.56 147.22 34.44 147.22 34.44 144.83 26.5 144.83 26.5 140.67 34.44 140.67"/><line class="b" x1="43.67" y1="138.28" x2="110" y2="138.28"/><polygon class="m" points="34.44 196 34.44 184.67 16.56 184.67 16.56 202.56 34.44 202.56 34.44 200.17 26.5 200.17 26.5 196 34.44 196"/><line class="b" x1="43.67" y1="193.61" x2="124.83" y2="193.61"/><line class="b" x1="43.67" y1="165.94" x2="166.17" y2="165.94"/><path class="k" d="M25.5,157c-4.94,0-8.94,4-8.94,8.94s4,8.94,8.94,8.94,8.94-4,8.94-8.94h-8.94v-8.94Z"/><line class="b" x1="43.67" y1="276.61" x2="135.83" y2="276.61"/><path class="k" d="M25.5,267.67c-4.94,0-8.94,4-8.94,8.94s4,8.94,8.94,8.94,8.94-4,8.94-8.94h-8.94v-8.94Z"/><line class="b" x1="43.67" y1="221.28" x2="150.17" y2="221.28"/><polygon class="j" points="25.5 212.33 16.56 212.33 16.56 230.22 34.44 230.22 34.44 221.28 26.33 212.33 25.5 212.33"/><line class="b" x1="43.67" y1="248.94" x2="180.83" y2="248.94"/><polygon class="j" points="25.5 240 16.56 240 16.56 257.89 34.44 257.89 34.44 248.94 26.33 240 25.5 240"/><rect class="l" x="1113.67" y="1086.06" width="806.33" height="333.94"/><line class="b" x1="1139.67" y1="1111.67" x2="1689" y2="1111.67"/><line class="b" x1="1139.67" y1="1137.28" x2="1623.67" y2="1137.28"/><line class="b" x1="1139.67" y1="1214.11" x2="1391.67" y2="1214.11"/><line class="b" x1="1139.67" y1="1239.72" x2="1465.67" y2="1239.72"/><line class="b" x1="1139.67" y1="1265.33" x2="1430.67" y2="1265.33"/><line class="b" x1="1139.67" y1="1290.94" x2="1373" y2="1290.94"/><line class="b" x1="1139.67" y1="1316.55" x2="1430.67" y2="1316.55"/><line class="b" x1="1139.67" y1="1188.5" x2="1650.33" y2="1188.5"/><line class="b" x1="1139.67" y1="1162.89" x2="1721.67" y2="1162.89"/></svg>