<svg id="Photoshop" xmlns="http://www.w3.org/2000/svg" viewBox="0 0 80 78"><path d="M32.83,28.07a9.8,9.8,0,0,0-3.93-.67c-.87,0-1.63,0-2.27,0a7.07,7.07,0,0,0-1.36,0v11.2c.46,0,.9.06,1.3.06h1.76a12.52,12.52,0,0,0,3.84-.6,5.75,5.75,0,0,0,2.73-1.76,5.18,5.18,0,0,0,1-3.44,5.44,5.44,0,0,0-.76-3A4.79,4.79,0,0,0,32.83,28.07Z" transform="translate(0 -1)" style="fill:#fff"/><path d="M65.83,1H14.17A14.15,14.15,0,0,0,0,15.17V64.83A14.15,14.15,0,0,0,14.17,79H65.83A14.15,14.15,0,0,0,80,64.83V15.17A14.15,14.15,0,0,0,65.83,1ZM41.2,39.83a11.38,11.38,0,0,1-5.37,4.07A21.63,21.63,0,0,1,28.33,45c-.8,0-1.33,0-1.66,0s-.8,0-1.44,0v10.7a.4.4,0,0,1-.36.46H18.4c-.27,0-.4-.13-.4-.43V21.4c0-.23.1-.37.33-.37.57,0,1.1,0,1.87,0s1.63,0,2.53-.07,1.87,0,2.9-.06,2,0,3,0a19.54,19.54,0,0,1,6.86,1A11.87,11.87,0,0,1,40,24.6a10.57,10.57,0,0,1,2.43,3.8,12.74,12.74,0,0,1,.77,4.33A11.92,11.92,0,0,1,41.2,39.83Zm23.63,13a8.36,8.36,0,0,1-3.73,3,15.25,15.25,0,0,1-6,1.06,23,23,0,0,1-4.54-.43,13.58,13.58,0,0,1-3.4-1.07.63.63,0,0,1-.36-.63V48.9a.36.36,0,0,1,.13-.3c.1-.07.2,0,.3,0a14.44,14.44,0,0,0,4.13,1.64,15.7,15.7,0,0,0,3.94.5A6.34,6.34,0,0,0,58,50.3a1.53,1.53,0,0,0,.9-1.4,1.73,1.73,0,0,0-.8-1.33A13.61,13.61,0,0,0,54.87,46a20.51,20.51,0,0,1-4.74-2.4,8.61,8.61,0,0,1-2.53-2.83,7.26,7.26,0,0,1-.77-3.4,7.81,7.81,0,0,1,1.14-4,8.12,8.12,0,0,1,3.5-3.06,12.9,12.9,0,0,1,5.9-1.17,28.79,28.79,0,0,1,4.13.3,11.47,11.47,0,0,1,2.87.77.57.57,0,0,1,.33.3,1.76,1.76,0,0,1,.07.4V36.3a.4.4,0,0,1-.17.33.85.85,0,0,1-.6,0,11.83,11.83,0,0,0-3.2-1.13,17.35,17.35,0,0,0-3.73-.43,6.38,6.38,0,0,0-2,.23A1.7,1.7,0,0,0,54,36a1.81,1.81,0,0,0-.26.9,1.44,1.44,0,0,0,.33.86,3.69,3.69,0,0,0,1.13.9c.77.4,1.57.77,2.37,1.1a24.14,24.14,0,0,1,5.13,2.44,7.84,7.84,0,0,1,2.64,2.76,7.19,7.19,0,0,1,.76,3.44A7.68,7.68,0,0,1,64.83,52.8Z" transform="translate(0 -1)" style="fill:#fff"/><path d="M41.2,39.83a11.92,11.92,0,0,0,2-7.1,12.74,12.74,0,0,0-.77-4.33A10.57,10.57,0,0,0,40,24.6V41.24A11.6,11.6,0,0,0,41.2,39.83Z" transform="translate(0 -1)" style="fill:none"/><path d="M62.73,42.17a24.14,24.14,0,0,0-5.13-2.44c-.8-.33-1.6-.7-2.37-1.1a3.69,3.69,0,0,1-1.13-.9,1.44,1.44,0,0,1-.33-.86A1.81,1.81,0,0,1,54,36a1.7,1.7,0,0,1,1-.67,6.38,6.38,0,0,1,2-.23,17.35,17.35,0,0,1,3.73.43A11.83,11.83,0,0,1,64,36.63a.85.85,0,0,0,.6,0,.4.4,0,0,0,.17-.33V30.87a1.76,1.76,0,0,0-.07-.4.57.57,0,0,0-.33-.3,11.47,11.47,0,0,0-2.87-.77,28.79,28.79,0,0,0-4.13-.3,12.9,12.9,0,0,0-5.9,1.17A8.12,8.12,0,0,0,48,33.33a7.81,7.81,0,0,0-1.14,4,7.26,7.26,0,0,0,.77,3.4,8.61,8.61,0,0,0,2.53,2.83A20.51,20.51,0,0,0,54.87,46a13.61,13.61,0,0,1,3.26,1.57,1.73,1.73,0,0,1,.8,1.33,1.53,1.53,0,0,1-.9,1.4,6.34,6.34,0,0,1-2.76.47,15.7,15.7,0,0,1-3.94-.5,14.44,14.44,0,0,1-4.13-1.64c-.1-.06-.2-.1-.3,0a.36.36,0,0,0-.13.3v5.8a.63.63,0,0,0,.36.63,13.58,13.58,0,0,0,3.4,1.07,23,23,0,0,0,4.54.43,15.25,15.25,0,0,0,6-1.06,8.36,8.36,0,0,0,3.73-3,7.68,7.68,0,0,0,1.3-4.43,7.19,7.19,0,0,0-.76-3.44A7.84,7.84,0,0,0,62.73,42.17Z" transform="translate(0 -1)" style="fill:none"/></svg>