<svg id="React" xmlns="http://www.w3.org/2000/svg" viewBox="0 0 80 71.93"><path d="M50.45,29.16c.74,1.15,1.46,2.33,2.16,3.55s1.4,2.47,2,3.7a64.8,64.8,0,0,0,2.28-6.12A63.63,63.63,0,0,0,50.45,29.16Z" transform="translate(0 -4.04)" style="fill:#fff"/><path d="M54.68,43.43c-.65,1.25-1.33,2.51-2.06,3.77s-1.44,2.44-2.18,3.61a63.88,63.88,0,0,0,6.63-1.13A66.23,66.23,0,0,0,54.68,43.43Z" transform="translate(0 -4.04)" style="fill:#fff"/><path d="M57.75,27.36c.11-.48.22-.95.31-1.41,1.5-7.26.57-12.79-1.81-14.16-2.23-1.29-7.13.51-12.38,5.08-.54.47-1.08,1-1.63,1.5a71.47,71.47,0,0,1,6,7.49A72.09,72.09,0,0,1,57.75,27.36Z" transform="translate(0 -4.04)" style="fill:#fff"/><path d="M40.08,25.48c1.42,0,2.82,0,4.21.1a62.85,62.85,0,0,0-4.18-5c-1.42,1.53-2.83,3.22-4.21,5C37.28,25.52,38.67,25.48,40.08,25.48Z" transform="translate(0 -4.04)" style="fill:#fff"/><path d="M22.45,27.33a73.59,73.59,0,0,1,9.48-1.47A71.5,71.5,0,0,1,38,18.37l-1.07-1c-5.54-4.92-10.8-6.88-13.17-5.5S20.63,18.32,22,25.14C22.1,25.86,22.27,26.59,22.45,27.33Z" transform="translate(0 -4.04)" style="fill:#fff"/><path d="M29.78,50.87c-.77-1.19-1.51-2.41-2.23-3.65h0c-.71-1.22-1.38-2.45-2-3.68-.9,2.14-1.67,4.25-2.3,6.27A65,65,0,0,0,29.78,50.87Z" transform="translate(0 -4.04)" style="fill:#fff"/><path d="M27.54,32.73c.7-1.22,1.43-2.42,2.17-3.58-2.25.28-4.41.65-6.44,1.11.62,2,1.38,4.05,2.26,6.14.63-1.23,1.3-2.45,2-3.67Z" transform="translate(0 -4.04)" style="fill:#fff"/><path d="M62,31.71c-.68-.23-1.38-.45-2.11-.66a70.36,70.36,0,0,1-3.46,8.86,70.66,70.66,0,0,1,3.6,9l1.19-.38c7-2.33,11.37-5.89,11.37-8.64C72.57,37.32,68.56,34,62,31.71Z" transform="translate(0 -4.04)" style="fill:#fff"/><path d="M57.9,52.61a71.74,71.74,0,0,1-9.62,1.48,69.67,69.67,0,0,1-6,7.56c.6.58,1.2,1.12,1.79,1.63,5.16,4.44,10,6.13,12.19,4.83,1.05-.61,1.9-2.13,2.33-4.41a25.76,25.76,0,0,0-.34-9.38Q58.13,53.48,57.9,52.61Z" transform="translate(0 -4.04)" style="fill:#fff"/><path d="M20.33,31c-.85.24-1.67.5-2.45.77C11.45,34,7.59,37.31,7.59,39.9c0,1.22.89,2.71,2.65,4.22a25.76,25.76,0,0,0,8.29,4.41c.56.19,1.15.37,1.75.54A74.44,74.44,0,0,1,23.79,40,72.09,72.09,0,0,1,20.33,31Z" transform="translate(0 -4.04)" style="fill:#fff"/><path d="M80,39.87c0-5.9-5.91-11-15.09-14.16,2.06-10,.32-17.4-5-20.46-5.12-2.94-12.49-.38-19.81,6C32.5,4.48,25.2,2.42,19.9,5.49c-5.11,2.95-6.56,10.63-4.7,20.15C6.21,28.77,0,34,0,39.87c0,6,5.9,11.68,15.2,14.86-1.86,9.35-.33,16.89,4.76,19.82S33,75.48,40.39,69C47.61,75.22,54.9,77.67,60,74.72S66.8,63.65,64.89,54C74.58,50.8,80,46,80,39.87ZM62.16,51.42c-.43.15-.87.28-1.32.42q.24,1,.42,1.89c1.61,8.13.37,14.8-3.44,17s-9.65,0-15.69-5.16c-.64-.55-1.28-1.13-1.92-1.75-.5.48-1,.93-1.48,1.36-6.24,5.45-12.64,7.71-16.45,5.51s-4.86-8.34-3.37-16.17c.16-.82.34-1.67.56-2.53q-1-.28-1.92-.6c-7.84-2.68-13-7.1-13-11.5s4.8-8.37,12.32-11c.84-.29,1.72-.56,2.63-.82-.2-.8-.37-1.59-.52-2.36-1.56-8-.47-14.33,3.24-16.47s10.29.17,16.7,5.86c.4.35.79.71,1.18,1.09q.89-.85,1.77-1.62C48,9.25,54.06,7,57.77,9.16c3.87,2.23,5,9,3.27,17.4q-.16.77-.36,1.56c.79.23,1.55.47,2.29.72C70.64,31.48,75.6,35.62,75.6,39.9,75.6,44.36,70.3,48.72,62.16,51.42Z" transform="translate(0 -4.04)" style="fill:#fff"/><path d="M22.41,52.74c-.2.81-.37,1.59-.52,2.36-1.27,6.69-.34,11.68,1.9,13,1.06.61,2.8.59,5-.18a25.79,25.79,0,0,0,7.95-5c.45-.39.9-.81,1.35-1.25A73.57,73.57,0,0,1,32,54.13,72,72,0,0,1,22.41,52.74Z" transform="translate(0 -4.04)" style="fill:#fff"/><path d="M40.08,54.44c-1.41,0-2.8,0-4.16-.08a66.54,66.54,0,0,0,4.28,5.12,66,66,0,0,0,4.17-5.13Q42.26,54.44,40.08,54.44Z" transform="translate(0 -4.04)" style="fill:#fff"/><path d="M50,34.23c-1.1-1.9-2.24-3.73-3.42-5.47-2.11-.16-4.28-.24-6.48-.24h0c-2.19,0-4.36.08-6.47.24-1.19,1.75-2.35,3.58-3.45,5.49h0c-1.1,1.89-2.11,3.81-3,5.72.92,1.91,1.93,3.83,3,5.73h0c1.11,1.9,2.27,3.75,3.48,5.5,2.07.14,4.22.21,6.43.21s4.4-.08,6.51-.23c1.15-1.74,2.29-3.57,3.4-5.5s2.13-3.85,3.06-5.75C52.12,38.06,51.1,36.15,50,34.23Zm-9.9,12a6.34,6.34,0,1,1,6.34-6.34A6.34,6.34,0,0,1,40.08,46.24Z" transform="translate(0 -4.04)" style="fill:#fff"/></svg>