<?xml version="1.0" encoding="UTF-8"?><svg xmlns="http://www.w3.org/2000/svg" viewBox="0 0 80 60"><g id="a"/><g id="b"><g id="c"><path d="M68.89,34.49c-2.79,.01-5.22,.69-7.25,1.68-.75-1.48-1.49-2.79-1.62-3.76-.15-1.13-.32-1.81-.15-3.16,.18-1.34,.96-3.26,.95-3.4s-.18-.83-1.78-.85c-1.61-.01-3,.31-3.16,.73-.16,.42-.47,1.39-.67,2.38-.28,1.46-3.21,6.68-4.9,9.41-.54-1.07-1.01-2-1.11-2.75-.15-1.13-.32-1.81-.15-3.16,.18-1.34,.96-3.26,.95-3.4-.01-.15-.18-.83-1.78-.85-1.61-.01-3,.31-3.16,.73-.16,.42-.34,1.42-.67,2.38s-4.24,9.67-5.26,11.92c-.53,1.15-.98,2.07-1.3,2.7h0s-.01,.04-.06,.12c-.28,.54-.44,.83-.44,.83h0c-.22,.41-.45,.77-.57,.77-.09,0-.25-1.05,.03-2.48,.58-3.02,1.97-7.73,1.96-7.89,0-.09,.26-.91-.91-1.33-1.14-.42-1.55,.28-1.65,.28s-.18,.25-.18,.25c0,0,1.27-5.29-2.43-5.29-2.31,0-5.49,2.53-7.07,4.81-.99,.54-3.11,1.7-5.38,2.94-.86,.48-1.75,.96-2.59,1.42-.06-.06-.12-.13-.18-.19-4.47-4.78-12.74-8.15-12.39-14.57,.13-2.34,.94-8.48,15.88-15.93,12.3-6.06,22.09-4.38,23.79-.66,2.43,5.32-5.25,15.2-17.96,16.63-4.85,.54-7.39-1.33-8.04-2.03-.67-.73-.77-.77-1.02-.63-.41,.22-.15,.88,0,1.26,.38,.99,1.94,2.75,4.59,3.61,2.34,.76,8.02,1.18,14.9-1.48,7.7-2.98,13.72-11.27,11.95-18.21C48.33,.3,36.64-2.03,25.58,1.9c-6.58,2.34-13.71,6.02-18.84,10.81C.65,18.42-.32,23.37,.08,25.44c1.42,7.36,11.57,12.16,15.64,15.71-.2,.12-.39,.22-.56,.31-2.03,1.01-9.78,5.06-11.7,9.34-2.19,4.85,.35,8.33,2.03,8.8,5.22,1.45,10.58-1.15,13.46-5.45,2.88-4.3,2.53-9.88,1.2-12.44-.01-.03-.03-.06-.06-.09,.53-.31,1.07-.63,1.59-.94,1.04-.61,2.06-1.18,2.94-1.65-.5,1.36-.86,2.98-1.04,5.32-.22,2.75,.91,6.31,2.38,7.72,.66,.61,1.43,.63,1.93,.63,1.72,0,2.5-1.43,3.36-3.13,1.05-2.07,2-4.49,2-4.49,0,0-1.18,6.52,2.03,6.52,1.17,0,2.35-1.52,2.88-2.29h0s.03-.03,.09-.13c.12-.19,.19-.31,.19-.31v-.03c.47-.82,1.52-2.67,3.08-5.76,2.02-3.97,3.96-8.94,3.96-8.94,0,0,.18,1.21,.77,3.23,.35,1.18,1.08,2.48,1.67,3.74-.47,.66-.76,1.02-.76,1.02h.01c-.38,.51-.79,1.05-1.24,1.58-1.59,1.9-3.49,4.08-3.76,4.71-.31,.75-.23,1.29,.35,1.72,.42,.32,1.18,.37,1.96,.32,1.43-.1,2.44-.45,2.94-.67,.77-.28,1.68-.7,2.53-1.33,1.56-1.15,2.51-2.81,2.43-4.98-.04-1.2-.44-2.4-.92-3.52,.15-.2,.28-.41,.42-.61,2.47-3.61,4.38-7.57,4.38-7.57,0,0,.18,1.21,.77,3.23,.29,1.02,.89,2.13,1.42,3.21-2.32,1.88-3.76,4.08-4.27,5.51-.92,2.66-.2,3.86,1.15,4.14,.61,.13,1.49-.16,2.13-.44,.82-.26,1.78-.72,2.7-1.39,1.56-1.15,3.07-2.76,2.98-4.94-.04-.99-.31-1.97-.67-2.92,1.97-.82,4.52-1.27,7.76-.89,6.96,.82,8.33,5.16,8.07,6.98s-1.72,2.82-2.21,3.13-.64,.41-.6,.63c.06,.32,.29,.31,.7,.25,.57-.1,3.65-1.48,3.78-4.84,.22-4.3-3.87-8.99-11.11-8.94h0ZM15.23,52.58c-2.31,2.51-5.52,3.46-6.91,2.66-1.49-.86-.91-4.57,1.93-7.23,1.72-1.62,3.95-3.13,5.42-4.05,.34-.2,.83-.5,1.43-.86,.1-.06,.16-.09,.16-.09h0l.35-.22c1.04,3.8,.04,7.15-2.38,9.79h0Zm16.8-11.43c-.8,1.96-2.48,6.97-3.51,6.69-.88-.23-1.42-4.03-.18-7.79,.63-1.88,1.96-4.14,2.73-5.01,1.26-1.4,2.64-1.87,2.98-1.3,.42,.75-1.53,6.18-2.03,7.41h0Zm13.87,6.63c-.34,.18-.66,.29-.8,.2-.1-.06,.15-.29,.15-.29,0,0,1.74-1.87,2.43-2.72,.39-.5,.86-1.08,1.36-1.74v.19c0,2.24-2.16,3.74-3.13,4.35h0Zm10.7-2.44c-.25-.18-.2-.76,.63-2.59,.32-.72,1.08-1.91,2.38-3.07,.15,.47,.25,.92,.23,1.34-.01,2.82-2.03,3.87-3.24,4.31h0Z" style="fill:#fff;"/></g></g></svg>